<svg width="41" height="46" viewBox="0 0 41 46" fill="none" xmlns="http://www.w3.org/2000/svg">
<path d="M30.7196 0.848388C30.2098 1.06814 27.3015 3.37912 24.2354 5.9789C18.6159 10.8276 14.4215 15.1659 12.9005 17.7829C12.4392 18.5688 12.0522 19.1851 12.0223 19.1642C12.0223 19.1642 11.515 16.4578 10.9801 13.1554C9.86584 6.74134 9.4018 5.30739 8.4386 5.47581C7.37401 5.66196 5.94256 8.34164 5.00447 12.0322C4.48782 13.9772 3.44269 17.9477 2.70348 20.8459C0.755757 28.2656 0.32637 30.8484 0.86141 31.7998C1.14527 32.2203 1.6116 33.0792 1.90164 33.6815C2.7239 35.3663 10.3603 40.9796 13.9831 42.5403C16.4541 43.6495 23.9939 45.7792 24.805 45.6374C25.0078 45.602 28.4947 40.8127 32.5501 34.9575C43.6921 18.9815 43.6735 18.4362 32.3684 22.764C26.543 24.9843 25.9436 25.1413 26.1279 24.5605C26.2051 24.2597 26.8501 22.4489 27.5786 20.5191C29.7785 14.5182 32.8885 3.78666 32.8154 2.49334C32.7361 1.01824 31.8912 0.382297 30.7196 0.848388ZM25.8413 14.4229C24.5579 18.6702 23.0648 24.6782 23.0304 25.8074C22.9993 27.2496 24.0858 27.9217 25.7317 27.4771C26.504 27.2637 29.1632 26.1979 31.6822 25.0783C34.2311 23.9795 36.789 22.9314 37.4091 22.7446L38.5272 22.4185L36.6508 24.6535C35.6442 25.9006 32.5443 30.0736 29.8347 33.9433L24.8352 40.9562L23.7453 39.9713C23.1511 39.4222 20.0347 37.3287 16.796 35.2828C10.3576 31.2625 8.35523 30.4372 4.65963 30.3781C3.559 30.3615 2.58061 30.2975 2.55076 30.2766C2.10298 29.9631 7.63831 12.1463 8.19595 12.0488C8.52997 12.0165 9.05355 15.8433 9.30617 20.0571C9.50649 22.9477 10.197 24.1854 11.4942 23.9847C12.1234 23.8485 13.0438 22.8517 15.7032 19.4348C19.2144 14.9286 21.9222 12.078 26.3408 8.1185L28.8435 5.87844L27.7286 8.86847C27.1072 10.5183 26.2661 12.9903 25.8413 14.4229ZM19.9962 40.0522C20.8681 40.8401 21.558 41.6338 21.5732 41.8662C21.5411 42.4204 17.409 41.5233 14.6665 40.3572C10.9632 38.7844 3.93279 33.6398 4.43302 32.9254C4.66229 32.598 8.38545 33.2531 10.3698 33.9771C11.262 34.2913 12.9123 35.0476 14.0704 35.6811C16.1268 36.8104 16.8134 37.2912 19.9962 40.0522Z" fill="white"/>
</svg>
