<svg width="886" height="316" viewBox="0 0 886 316" fill="none" xmlns="http://www.w3.org/2000/svg">
<path fill-rule="evenodd" clip-rule="evenodd" d="M270.05 55.2048C273.177 55.2048 275.538 57.963 275.023 61.0525C273.47 69.8689 266.931 76.8918 258.394 79.1479L258.271 79.1794V87.3561C258.271 88.3692 257.481 89.1974 256.483 89.2553L256.372 89.2585C255.36 89.2585 254.533 88.4665 254.475 87.4678L254.472 87.3561V77.6536C254.472 76.7365 255.125 75.95 256.026 75.783C263.818 74.3378 269.904 68.2109 271.279 60.4091C271.402 59.6671 270.839 59.0097 270.05 59.0097C269.45 59.0097 268.944 59.4359 268.816 60.046C267.458 67.5638 260.707 72.7073 252.572 72.7073C244.462 72.7073 237.763 67.5867 236.326 60.0332C236.229 59.474 235.679 59.0097 235.095 59.0097C234.341 59.0097 233.747 59.6941 233.862 60.3889C235.245 68.1752 241.354 74.3431 249.119 75.783C249.982 75.943 250.618 76.6721 250.669 77.5397L250.673 77.6536V87.3561C250.673 88.4067 249.822 89.2585 248.773 89.2585C247.761 89.2585 246.934 88.4665 246.876 87.4678L246.873 87.3561V79.1787L246.755 79.1483C238.33 76.9163 231.821 69.9852 230.17 61.3179L230.118 61.0347C229.609 57.9776 232.016 55.2048 235.095 55.2048C237.474 55.2048 239.561 56.9222 240.034 59.1955L240.064 59.3513C241.141 65.0154 246.227 68.9024 252.572 68.9024C258.938 68.9024 264.06 65 265.087 59.3193C265.586 56.9203 267.624 55.2048 270.05 55.2048Z" fill="#00479F"/>
<path fill-rule="evenodd" clip-rule="evenodd" d="M325.648 55.2048C328.775 55.2048 331.136 57.963 330.622 61.0525C329.068 69.8689 322.529 76.8918 313.993 79.1479L313.87 79.1794V87.3561C313.87 88.3692 313.079 89.1974 312.082 89.2553L311.97 89.2585C310.958 89.2585 310.131 88.4665 310.074 87.4678L310.07 87.3561V77.6536C310.07 76.7365 310.724 75.95 311.624 75.783C319.417 74.3378 325.502 68.2109 326.877 60.4091C327.001 59.6671 326.438 59.0097 325.648 59.0097C325.048 59.0097 324.542 59.4359 324.415 60.046C323.056 67.5638 316.306 72.7073 308.171 72.7073C300.06 72.7073 293.361 67.5867 291.925 60.0332C291.827 59.474 291.277 59.0097 290.693 59.0097C289.939 59.0097 289.345 59.6941 289.461 60.3889C290.843 68.1752 296.953 74.3431 304.717 75.783C305.58 75.943 306.216 76.6721 306.268 77.5397L306.271 77.6536V87.3561C306.271 88.4067 305.42 89.2585 304.371 89.2585C303.36 89.2585 302.533 88.4665 302.475 87.4678L302.472 87.3561V79.1787L302.353 79.1483C293.928 76.9163 287.42 69.9852 285.769 61.3179L285.717 61.0347C285.208 57.9776 287.614 55.2048 290.693 55.2048C293.072 55.2048 295.16 56.9222 295.633 59.1955L295.662 59.3513C296.74 65.0154 301.825 68.9024 308.171 68.9024C314.537 68.9024 319.658 65 320.685 59.3193C321.184 56.9203 323.222 55.2048 325.648 55.2048Z" fill="#00479F"/>
<path fill-rule="evenodd" clip-rule="evenodd" d="M330.397 85.4536C336.057 85.4536 341.14 88.9633 343.118 94.2166L343.203 94.4495L362.264 147.59C364.418 153.592 364.25 160.115 361.794 165.905L361.652 166.232L360.51 168.902C358.368 173.856 353.434 177.088 348.001 177.088C346.952 177.088 346.101 176.236 346.101 175.185C346.101 174.135 346.952 173.283 348.001 173.283C351.85 173.283 355.352 171.036 356.933 167.593L357.02 167.397L358.168 164.714C360.325 159.825 360.546 154.311 358.802 149.203L358.688 148.877L339.626 95.7309C338.275 91.9321 334.667 89.3503 330.615 89.2609L330.397 89.2585H214.515C210.57 89.2585 207.014 91.6575 205.476 95.3254L205.393 95.5305L184.816 148.346C182.249 155.031 183.522 162.525 188.116 167.849L188.315 168.076L190.092 170.046C191.969 172.141 194.632 173.346 197.417 173.346C198.466 173.346 199.317 174.198 199.317 175.249C199.317 176.299 198.466 177.151 197.417 177.151C193.636 177.151 190.03 175.558 187.451 172.792L187.269 172.592L185.488 170.618C179.84 164.28 178.197 155.303 181.162 147.266L181.273 146.972L201.856 94.141C203.887 88.9835 208.779 85.5586 214.261 85.456L214.515 85.4536H330.397Z" fill="#0B4388"/>
<path fill-rule="evenodd" clip-rule="evenodd" d="M293.945 86.7921C294.256 85.7887 295.32 85.2277 296.322 85.5391C297.288 85.8395 297.844 86.8414 297.603 87.8123L297.573 87.92L276.735 155.155C275.962 157.573 276.537 160.279 278.209 162.257L278.355 162.425L288.93 174.03C289.637 174.806 289.583 176.009 288.808 176.717C288.062 177.398 286.923 177.374 286.207 176.681L286.124 176.595L275.538 164.978C272.908 162.043 271.945 157.956 273.04 154.243L293.945 86.7921Z" fill="#0B4388"/>
<path fill-rule="evenodd" clip-rule="evenodd" d="M221.084 102.951C207.075 112.802 202.548 130.711 211.165 143.003C219.783 155.295 238.139 157.113 252.148 147.263C266.156 137.413 270.684 119.503 262.066 107.211C253.449 94.9188 235.092 93.1008 221.084 102.951ZM223.266 106.064C235.652 97.3554 251.623 98.9371 258.956 109.398C266.29 119.859 262.351 135.441 249.965 144.15C237.58 152.859 221.609 151.277 214.276 140.816C206.942 130.355 210.881 114.774 223.266 106.064Z" fill="#00479F"/>
<path fill-rule="evenodd" clip-rule="evenodd" d="M226.94 111.305C218.285 117.391 215.475 128.509 220.858 136.187C226.241 143.866 237.636 144.995 246.292 138.909C254.947 132.823 257.756 121.705 252.373 114.027C246.99 106.348 235.595 105.219 226.94 111.305ZM229.123 114.418C236.155 109.473 245.164 110.366 249.263 116.214C253.362 122.061 251.141 130.851 244.109 135.796C237.077 140.741 228.068 139.848 223.968 134C219.869 128.153 222.09 119.363 229.123 114.418Z" fill="#00479F"/>
<path fill-rule="evenodd" clip-rule="evenodd" d="M245.543 127.434L227.116 127.371C225.849 127.371 224.963 126.356 225.153 125.151C225.343 123.946 226.483 122.932 227.812 122.932L246.24 122.995C247.506 122.995 248.393 124.01 248.203 125.215C247.949 126.483 246.81 127.434 245.543 127.434Z" fill="#00479F"/>
<path fill-rule="evenodd" clip-rule="evenodd" d="M241.918 105.346C243.091 104.521 243.472 103.039 242.769 102.036C242.066 101.033 240.544 100.888 239.371 101.714C238.197 102.539 237.816 104.021 238.519 105.024C239.223 106.027 240.744 106.172 241.918 105.346Z" fill="#00479F"/>
<path fill-rule="evenodd" clip-rule="evenodd" d="M252.239 108.148C253.412 107.323 253.793 105.841 253.09 104.838C252.387 103.834 250.865 103.69 249.692 104.515C248.518 105.34 248.137 106.822 248.84 107.826C249.544 108.829 251.065 108.973 252.239 108.148Z" fill="#00479F"/>
<path fill-rule="evenodd" clip-rule="evenodd" d="M229.823 108.091C230.997 107.266 231.378 105.784 230.675 104.78C229.971 103.777 228.45 103.633 227.276 104.458C226.103 105.283 225.722 106.765 226.425 107.768C227.128 108.772 228.65 108.916 229.823 108.091Z" fill="#00479F"/>
<path fill-rule="evenodd" clip-rule="evenodd" d="M220.631 115.946C221.804 115.121 222.185 113.638 221.482 112.635C220.778 111.632 219.257 111.488 218.084 112.313C216.91 113.138 216.529 114.62 217.232 115.623C217.936 116.626 219.457 116.771 220.631 115.946Z" fill="#00479F"/>
<path fill-rule="evenodd" clip-rule="evenodd" d="M258.771 116.127C259.945 115.302 260.326 113.82 259.622 112.817C258.919 111.814 257.398 111.669 256.224 112.494C255.051 113.319 254.67 114.802 255.373 115.805C256.076 116.808 257.598 116.952 258.771 116.127Z" fill="#00479F"/>
<path fill-rule="evenodd" clip-rule="evenodd" d="M215.979 126.864C217.152 126.039 217.533 124.556 216.83 123.553C216.127 122.55 214.605 122.406 213.432 123.231C212.258 124.056 211.877 125.538 212.58 126.541C213.284 127.544 214.805 127.689 215.979 126.864Z" fill="#00479F"/>
<path fill-rule="evenodd" clip-rule="evenodd" d="M259.572 126.925C260.745 126.1 261.126 124.618 260.423 123.614C259.72 122.611 258.198 122.467 257.025 123.292C255.851 124.117 255.47 125.599 256.173 126.602C256.877 127.606 258.398 127.75 259.572 126.925Z" fill="#00479F"/>
<path fill-rule="evenodd" clip-rule="evenodd" d="M234.253 148.405C235.427 147.579 235.808 146.097 235.105 145.094C234.401 144.091 232.88 143.947 231.706 144.772C230.533 145.597 230.152 147.079 230.855 148.082C231.558 149.085 233.08 149.23 234.253 148.405Z" fill="#00479F"/>
<path fill-rule="evenodd" clip-rule="evenodd" d="M223.88 145.639C225.054 144.814 225.435 143.332 224.732 142.329C224.028 141.326 222.507 141.181 221.333 142.006C220.16 142.831 219.779 144.314 220.482 145.317C221.185 146.32 222.707 146.464 223.88 145.639Z" fill="#00479F"/>
<path fill-rule="evenodd" clip-rule="evenodd" d="M217.4 137.624C218.573 136.799 218.954 135.316 218.251 134.313C217.548 133.31 216.026 133.166 214.853 133.991C213.679 134.816 213.298 136.298 214.002 137.301C214.705 138.304 216.226 138.449 217.4 137.624Z" fill="#00479F"/>
<path fill-rule="evenodd" clip-rule="evenodd" d="M266.06 139.039C262.957 137.961 257.511 136.122 253.902 134.854C252.509 134.346 251.179 135.805 251.812 137.2L257.131 149.122C257.638 150.263 259.158 150.517 259.981 149.566L266.82 141.829C267.58 140.878 267.2 139.419 266.06 139.039Z" fill="#00479F"/>
<path fill-rule="evenodd" clip-rule="evenodd" d="M390.681 173.98C391.693 173.98 392.52 174.772 392.578 175.771L392.581 175.883V247.732C392.581 248.782 391.731 249.634 390.681 249.634C389.67 249.634 388.843 248.842 388.785 247.843L388.782 247.732V177.785H149.228V312.288C149.228 313.301 148.437 314.129 147.44 314.187L147.328 314.19C146.316 314.19 145.489 313.398 145.432 312.4L145.428 312.288V175.883C145.428 174.87 146.219 174.042 147.217 173.984L147.328 173.98H390.681Z" fill="#0B4388"/>
<path fill-rule="evenodd" clip-rule="evenodd" d="M390.681 185.332C391.731 185.332 392.581 186.183 392.581 187.234C392.581 188.247 391.79 189.075 390.793 189.133L390.681 189.137H147.328C146.279 189.137 145.428 188.285 145.428 187.234C145.428 186.221 146.219 185.393 147.217 185.335L147.328 185.332H390.681Z" fill="#0B4388"/>
<path fill-rule="evenodd" clip-rule="evenodd" d="M292.34 175.249C293.351 175.249 294.178 176.041 294.236 177.039L294.239 177.151V310.576C294.239 311.626 293.389 312.478 292.34 312.478C291.328 312.478 290.501 311.686 290.443 310.687L290.44 310.576V177.151C290.44 176.101 291.29 175.249 292.34 175.249Z" fill="#0B4388"/>
<path fill-rule="evenodd" clip-rule="evenodd" d="M274.926 209.493H160.816C159.767 209.493 158.917 210.344 158.917 211.395V239.424C158.917 240.475 159.767 241.327 160.816 241.327H274.926C275.975 241.327 276.825 240.475 276.825 239.424V211.395C276.825 210.344 275.975 209.493 274.926 209.493ZM273.025 213.298V237.522H162.715V213.298H273.025Z" fill="#0B4388"/>
<path fill-rule="evenodd" clip-rule="evenodd" d="M217.871 215.961C212.66 215.961 208.436 220.191 208.436 225.41C208.436 230.628 212.66 234.858 217.871 234.858C223.082 234.858 227.306 230.628 227.306 225.41C227.306 220.191 223.082 215.961 217.871 215.961ZM217.871 219.766C220.984 219.766 223.507 222.293 223.507 225.41C223.507 228.527 220.984 231.054 217.871 231.054C214.758 231.054 212.235 228.527 212.235 225.41C212.235 222.293 214.758 219.766 217.871 219.766Z" fill="#0B4388"/>
<path fill-rule="evenodd" clip-rule="evenodd" d="M274.926 256.61H160.816C159.767 256.61 158.917 257.461 158.917 258.512V286.541C158.917 287.592 159.767 288.444 160.816 288.444H274.926C275.975 288.444 276.825 287.592 276.825 286.541V258.512C276.825 257.461 275.975 256.61 274.926 256.61ZM273.025 260.415V284.639H162.715V260.415H273.025Z" fill="#0B4388"/>
<path fill-rule="evenodd" clip-rule="evenodd" d="M217.871 263.141C212.66 263.141 208.436 267.372 208.436 272.59C208.436 277.809 212.66 282.039 217.871 282.039C223.082 282.039 227.306 277.809 227.306 272.59C227.306 267.372 223.082 263.141 217.871 263.141ZM217.871 266.946C220.984 266.946 223.507 269.473 223.507 272.59C223.507 275.707 220.984 278.234 217.871 278.234C214.758 278.234 212.235 275.707 212.235 272.59C212.235 269.473 214.758 266.946 217.871 266.946Z" fill="#0B4388"/>
<path fill-rule="evenodd" clip-rule="evenodd" d="M656.995 238.948C658.027 238.759 659.017 239.443 659.207 240.476C661.02 250.382 661.614 259.839 661.154 268.913L661.103 269.831L661.158 269.848C669.464 272.364 682.51 274.48 699.693 276.297L702.783 276.616C716.001 277.954 728.98 278.92 749.849 280.267C765.452 281.267 772.464 287.837 772.167 297.978C772.059 301.672 770.973 305.551 769.239 309.421C768.605 310.835 767.927 312.149 767.248 313.333L767.064 313.65C766.739 314.206 766.481 314.618 766.315 314.867C765.732 315.74 764.552 315.975 763.68 315.392C762.84 314.83 762.591 313.713 763.094 312.851L763.362 312.429L763.585 312.066C763.701 311.872 763.824 311.663 763.954 311.438C764.573 310.358 765.194 309.155 765.772 307.863C767.32 304.41 768.278 300.988 768.369 297.866C768.602 289.921 763.287 284.941 749.605 284.064L744.706 283.746C725.915 282.512 713.717 281.569 701.026 280.261L699.285 280.08C680.814 278.127 667.043 275.829 658.514 273.001C657.688 272.727 657.154 271.927 657.216 271.059C657.898 261.565 657.386 251.631 655.469 241.163C655.28 240.129 655.963 239.138 656.995 238.948Z" fill="#0B4388"/>
<path fill-rule="evenodd" clip-rule="evenodd" d="M508.029 0.607199C514.398 -1.87107 522.79 5.0825 530.246 16.8925C536.882 27.4037 541.038 39.1735 540.39 46.8558L540.38 46.9584L540.386 46.9624C555.202 57.7601 559.222 72.7832 553.97 89.4992L553.821 89.9662L554.05 90.2031C563.393 99.8855 571.023 110.105 575.966 120.903L576.092 121.183L576.254 121.22L576.603 121.305C576.724 121.336 576.851 121.369 576.983 121.405L577.185 121.46C578.838 121.92 580.73 122.615 582.836 123.591C588.772 126.344 595.277 130.782 602.156 137.274C602.92 137.995 602.955 139.199 602.236 139.963C601.516 140.728 600.314 140.764 599.55 140.043C592.965 133.829 586.801 129.622 581.24 127.044C579.322 126.155 577.624 125.531 576.168 125.126L575.76 125.017C575.499 124.95 575.261 124.895 575.046 124.85L574.632 124.771L574.54 124.758C573.871 124.678 573.294 124.25 573.024 123.632C568.147 112.484 560.17 101.853 550.296 91.7973C549.789 91.2814 549.619 90.5224 549.856 89.839C555.469 73.6611 551.856 59.5543 537.269 49.4114C536.664 48.9906 536.356 48.2571 536.48 47.5295C538.905 33.2626 518.335 0.678944 509.401 4.1553C506.489 5.28082 497.929 18.6311 490.933 33.5641C490.604 34.266 489.886 34.6941 489.12 34.6563L487.536 34.4955L486.155 34.3661C484.733 34.2381 483.16 34.1111 481.456 33.9912C473.93 33.4618 465.991 33.2102 458.165 33.3897C457.675 33.401 457.2 33.2224 456.839 32.8913C449.18 25.8729 440.835 19.1187 432.831 14.0647L432.17 13.6506C421.526 7.04582 413.366 4.8209 408.991 7.87333C408.136 8.46961 407.303 14.1654 407.185 22.6837C407.077 30.4611 407.471 40.5249 408.217 50.9469C408.253 51.449 408.089 51.9449 407.761 52.326C399.487 61.9254 394.209 71.6908 392.864 81.5264C391.237 93.4305 395.465 105.008 406.752 116.237L407.669 117.143C408.183 117.644 408.75 118.177 409.705 119.064C410.092 119.424 410.312 119.93 410.312 120.459L410.309 121.292C410.291 123.866 410.181 125.836 409.913 127.767L409.855 128.161C409.754 128.827 409.63 129.542 409.467 130.422L408.608 134.869C408.537 135.24 408.472 135.588 408.408 135.937C406.852 144.371 406.284 151.621 406.965 160.671C407.858 172.534 410.967 185.789 416.856 201.013L418.603 205.468C420.051 209.147 422.061 214.24 422.931 216.464L423.904 218.969C426.732 226.297 428.881 232.24 430.747 238.033C432.597 243.778 434.065 249.095 435.153 254.107C437.614 265.256 435.758 279 430.968 289.31C430.525 290.262 429.396 290.675 428.444 290.232C427.493 289.789 427.081 288.657 427.523 287.705C431.975 278.124 433.716 265.226 431.442 254.921C430.381 250.034 428.945 244.834 427.131 239.201L426.635 237.68C424.848 232.25 422.775 226.577 420.087 219.635L417.195 212.263C415.755 208.607 414.153 204.546 413.609 203.148C407.397 187.269 404.113 173.404 403.176 160.957C402.487 151.792 403.03 144.378 404.546 135.933L404.672 135.246C404.786 134.623 404.904 134.004 405.047 133.267L405.623 130.301C405.87 129.002 406.03 128.081 406.151 127.236C406.381 125.578 406.483 123.841 406.507 121.574L406.509 121.284L405.797 120.615C405.452 120.289 405.165 120.014 404.885 119.739L404.423 119.28C392.057 107.141 387.288 94.2641 389.1 81.0102C390.518 70.6423 395.851 60.5495 404.135 50.7195L404.372 50.4386L404.325 49.7533C403.674 40.2644 403.319 31.1396 403.374 23.7938L403.386 22.6309L403.398 21.8641C403.573 12.0048 404.445 6.40728 406.82 4.7513C413.033 0.415718 422.656 3.14172 434.858 10.8462C442.592 15.7295 450.563 22.0981 457.976 28.7861L458.841 29.5701L459.405 29.5595C466.485 29.4401 473.619 29.6596 480.446 30.1088L481.722 30.1957L482.744 30.2695C484.253 30.3815 485.652 30.4983 486.926 30.6158L488.071 30.7243L488.611 29.5991C495.782 14.7522 503.801 2.43715 507.9 0.660278L508.029 0.607199Z" fill="#0B4388"/>
<path fill-rule="evenodd" clip-rule="evenodd" d="M406.228 5.48273C406.721 4.55495 407.871 4.20258 408.797 4.69569L409.147 4.8866L409.681 5.18716C409.809 5.26038 409.944 5.33788 410.085 5.4196C411.086 5.99988 412.199 6.67749 413.397 7.44711C416.816 9.64494 420.235 12.1452 423.434 14.9084C434.16 24.1743 439.977 34.1294 438.014 44.4014C437.817 45.4334 436.822 46.1099 435.791 45.9124C434.761 45.7149 434.085 44.7183 434.282 43.6863C435.922 35.1025 430.754 26.2568 420.952 17.7895C417.9 15.1531 414.622 12.7562 411.344 10.6491C410.198 9.91204 409.134 9.26459 408.182 8.71265L407.628 8.39533L407.014 8.0555C406.088 7.56238 405.736 6.41052 406.228 5.48273Z" fill="#0B4388"/>
<path fill-rule="evenodd" clip-rule="evenodd" d="M509.743 0.446263C510.635 -0.107159 511.806 0.168224 512.358 1.06135L512.769 1.74794L513.13 2.37313C513.426 2.89058 513.743 3.46126 514.078 4.08123C515.352 6.43752 516.625 9.03035 517.813 11.7858C520.314 17.5827 522.106 23.3077 522.88 28.7079C523.699 34.4219 523.336 39.5352 521.556 43.8783C521.158 44.8504 520.048 45.315 519.078 44.9161C518.107 44.5172 517.643 43.4059 518.041 42.4338C519.533 38.7929 519.849 34.3427 519.119 29.2485C518.399 24.2244 516.703 18.8067 514.325 13.2946C513.184 10.6483 511.96 8.15488 510.737 5.89236L510.423 5.31622C510.166 4.84983 509.923 4.41809 509.695 4.02336L509.387 3.49528L509.129 3.06546C508.576 2.17234 508.851 0.999685 509.743 0.446263Z" fill="#0B4388"/>
<path fill-rule="evenodd" clip-rule="evenodd" d="M473.506 69.0304C474.13 65.0161 472.562 61.4387 470.005 61.0401C467.448 60.6415 464.869 63.5726 464.245 67.5869C463.621 71.6012 465.188 75.1786 467.746 75.5772C470.303 75.9758 472.882 73.0447 473.506 69.0304Z" fill="#0B4388"/>
<path fill-rule="evenodd" clip-rule="evenodd" d="M437.54 69.2196C438.164 65.2053 436.597 61.628 434.039 61.2294C431.482 60.8307 428.903 63.7619 428.279 67.7762C427.655 71.7905 429.223 75.3679 431.78 75.7665C434.337 76.1651 436.916 73.234 437.54 69.2196Z" fill="#0B4388"/>
<path fill-rule="evenodd" clip-rule="evenodd" d="M445.917 85.9586C446.216 83.7548 449.402 83.7672 449.684 85.9733C450.149 89.6157 450.957 92.3832 452.317 94.0457C453.93 96.0186 456.297 96.1936 460.365 93.7202C461.262 93.1749 462.43 93.4609 462.975 94.359C463.519 95.2571 463.234 96.4272 462.337 96.9725C456.766 100.359 452.299 100.029 449.377 96.4567C448.801 95.7523 448.311 94.9656 447.892 94.0952L447.725 93.7356L447.712 93.7662C447.3 94.7041 446.835 95.5673 446.318 96.3172L446.144 96.563C443.303 100.462 439.153 100.797 434.845 96.7307C434.081 96.01 434.046 94.806 434.766 94.0414C435.485 93.2769 436.688 93.2413 437.451 93.962C440.11 96.4717 441.594 96.352 443.075 94.3199C444.446 92.4389 445.492 89.097 445.917 85.9586Z" fill="#0B4388"/>
<path fill-rule="evenodd" clip-rule="evenodd" d="M439.948 81.4585L446.153 86.9122C447.04 87.6732 448.56 87.6732 449.509 86.7854L455.399 81.5219C456.792 80.2537 455.905 78.2244 453.942 78.2244L441.847 78.0976C439.694 78.0341 438.491 80.1902 439.948 81.4585Z" fill="#0B4388"/>
<path fill-rule="evenodd" clip-rule="evenodd" d="M349.867 74.7577C360.985 68.0198 372.325 65.4229 383.621 66.3151C392.535 67.0191 400.953 69.8415 408.672 74.1023C411.817 75.8378 414.631 77.6977 417.08 79.5607C417.833 80.1339 418.506 80.6728 419.094 81.1672L419.563 81.5672C419.84 81.807 420.04 81.9871 420.16 82.0997C420.925 82.8182 420.964 84.0221 420.247 84.7887C419.557 85.5259 418.419 85.5903 417.652 84.9554L417.403 84.7317C417.286 84.6269 417.15 84.5075 416.996 84.3747L416.877 84.2725C416.285 83.7674 415.585 83.2016 414.781 82.5903C412.474 80.8348 409.813 79.0763 406.838 77.4346C399.562 73.4184 391.651 70.766 383.323 70.1082C372.809 69.2778 362.263 71.693 351.834 78.0129C350.937 78.5569 349.769 78.2692 349.226 77.3703C348.682 76.4714 348.97 75.3017 349.867 74.7577Z" fill="#0B4388"/>
<path fill-rule="evenodd" clip-rule="evenodd" d="M360.721 85.9104C369.666 80.8396 379.157 78.6529 388.905 78.8775C396.51 79.0527 403.849 80.6733 410.678 83.2641C413.034 84.1578 415.177 85.1116 417.078 86.0716L417.512 86.2933C418.729 86.9205 419.59 87.4151 420.06 87.7102C420.949 88.2685 421.217 89.4426 420.66 90.3327C420.123 91.1898 419.016 91.4711 418.141 90.9922L417.68 90.7171L417.485 90.6045C417 90.3261 416.428 90.0139 415.773 89.6763C413.889 88.7052 411.73 87.7317 409.332 86.8222C402.882 84.3748 395.957 82.8459 388.818 82.6814C379.731 82.472 370.916 84.5027 362.592 89.2216C359.003 91.2561 355.532 93.779 352.191 96.8179C351.415 97.5244 350.213 97.4666 349.508 96.6889C348.803 95.9111 348.86 94.708 349.637 94.0015C353.185 90.7741 356.885 88.085 360.721 85.9104Z" fill="#0B4388"/>
<path fill-rule="evenodd" clip-rule="evenodd" d="M498.151 71.044C514.31 64.4587 530.753 61.3339 546.187 63.6109C554.027 64.7676 561.362 67.318 568.086 71.3973C568.983 71.9417 569.27 73.1115 568.726 74.0102C568.183 74.9088 567.015 75.1959 566.117 74.6515C559.84 70.8429 552.986 68.4599 545.633 67.3752C530.976 65.2128 515.169 68.2167 499.583 74.5683C495.343 76.2963 491.446 78.1476 487.984 79.9972C486.896 80.5783 485.923 81.1212 485.073 81.6145L484.434 81.99C484.264 82.0912 484.11 82.1843 483.971 82.269L483.705 82.4328C482.818 82.9939 481.645 82.7287 481.085 81.8404C480.525 80.952 480.789 79.777 481.676 79.2159L481.994 79.0196C482.194 78.8976 482.422 78.7605 482.678 78.6095L482.875 78.4936C483.831 77.933 484.942 77.31 486.196 76.6401C489.769 74.7312 493.783 72.824 498.151 71.044Z" fill="#0B4388"/>
<path fill-rule="evenodd" clip-rule="evenodd" d="M494.954 80.3161C508.987 76.3183 523.33 74.6021 536.783 76.4768C548.918 78.1679 559.565 82.7379 568.252 90.6406C569.029 91.347 569.087 92.5502 568.381 93.3279C567.676 94.1057 566.474 94.1634 565.698 93.457C557.612 86.1013 547.675 81.8362 536.259 80.2454C523.405 78.4541 509.561 80.1105 495.994 83.9758C492.808 84.8833 489.872 85.851 487.243 86.8216L486.684 87.0297C485.718 87.3925 484.867 87.7287 484.139 88.0294L483.275 88.3961C482.316 88.824 481.193 88.3929 480.766 87.4333C480.339 86.4737 480.769 85.3489 481.727 84.921L482.272 84.6861L482.69 84.512C483.455 84.1958 484.345 83.8446 485.35 83.467C488.214 82.3919 491.437 81.318 494.954 80.3161Z" fill="#0B4388"/>
<path fill-rule="evenodd" clip-rule="evenodd" d="M543.005 108.742C543.556 107.848 544.727 107.571 545.62 108.123C546.512 108.675 546.789 109.847 546.238 110.741C539.924 120.982 524.53 132.497 505.755 138.304C480.333 146.168 450.68 143.789 417.85 128.423L416.854 127.953C416.025 127.566 415.214 127.124 414.319 126.584L413.98 126.377L407.394 122.192C406.508 121.629 406.246 120.453 406.808 119.566C407.35 118.712 408.458 118.436 409.331 118.92L409.43 118.979L415.993 123.15C416.887 123.701 417.676 124.138 418.472 124.51C450.863 139.901 479.879 142.326 504.634 134.669C514.317 131.674 522.942 127.216 530.138 121.834C536.005 117.445 540.601 112.641 543.005 108.742Z" fill="#0B4388"/>
<path fill-rule="evenodd" clip-rule="evenodd" d="M316.335 146.159C317.374 146.016 318.332 146.745 318.475 147.786C318.958 151.317 319.29 154.573 319.449 157.532L319.459 157.733L319.542 157.767C321.047 158.386 322.498 159.111 323.86 159.935L324.199 160.143C331.861 164.924 335.775 172.248 334.165 180.984C333.946 182.173 333.677 183.306 333.362 184.381L333.299 184.592L333.533 184.749C340.681 189.564 342.943 195.642 339.829 203.658L339.713 203.95L339.773 203.961C351.384 206.116 359.267 219.439 358.557 229.989L358.525 230.39L358.56 230.415C364.863 234.982 368.111 241.562 366.7 249.273L366.685 249.352L366.932 249.454C369.615 250.582 372.175 252.258 374.473 254.496L374.737 254.757C375.479 255.5 375.479 256.705 374.737 257.448C373.995 258.191 372.793 258.191 372.051 257.448C370.193 255.587 368.14 254.174 365.989 253.194L365.748 253.086L365.717 253.184C363.636 259.51 359.813 262.61 355.11 262.324L354.919 262.311C350.463 261.956 346.073 258.282 345.976 254.761C345.873 251.1 350.601 248.278 356.387 247.778C358.527 247.594 360.695 247.722 362.829 248.171L363.025 248.214L363.05 248.062C363.839 242.774 361.862 238.184 357.799 234.658L357.634 234.516L357.518 234.831C356.56 237.29 354.946 239.396 352.584 240.891L352.183 241.134C346.187 244.612 339.625 243.518 335.281 239.253C331.025 235.074 330.457 229.159 335.092 226.268C339.28 223.656 347.542 224.479 354.505 227.965L354.748 228.088L354.743 227.901C354.672 225.958 354.277 223.871 353.546 221.731L353.453 221.464C350.851 214.114 345.137 208.562 338.52 207.61L338.265 207.575L337.993 207.541L337.926 207.668C334.912 213.239 332.045 216.393 329.151 217.318L328.987 217.368C325.854 218.278 323.233 216.606 321.338 213.351C319.453 210.037 319.695 206.852 322.738 204.959C325.155 203.457 329.268 202.95 335.291 203.438L335.782 203.48L335.823 203.392C338.786 196.812 337.562 192.285 332.084 188.36L331.917 188.242L331.901 188.277C329.827 192.701 326.765 195.732 323.041 197.15L322.808 197.237C317.684 199.081 312.042 197.53 308.505 193.423C304.63 188.924 307.538 184.433 313.749 182.289C318.807 180.542 325.07 180.538 329.602 182.507L329.904 182.642L329.908 182.628C330.077 181.991 330.229 181.328 330.363 180.64L330.429 180.294C331.732 173.22 328.611 167.379 322.189 163.372C321.496 162.939 320.774 162.536 320.029 162.164L319.552 161.932L319.553 161.953C319.537 163.342 319.471 164.645 319.35 165.86L319.312 166.222C318.608 172.63 316.282 176.571 311.788 176.893C305.645 177.33 299.482 173.554 296.559 168.276C293.346 162.474 295.294 156.829 302.257 155.558C306.218 154.835 310.838 155.139 315.295 156.333L315.564 156.407L315.557 156.293C315.396 153.983 315.134 151.465 314.772 148.756L314.711 148.302C314.568 147.261 315.295 146.302 316.335 146.159ZM361.975 251.88C360.228 251.52 358.458 251.419 356.713 251.569C354.556 251.755 352.622 252.336 351.267 253.144C350.227 253.765 349.766 254.368 349.774 254.654C349.811 256.02 352.54 258.304 355.221 258.518C358.098 258.748 360.566 256.82 362.108 252.039L362.146 251.916L361.975 251.88ZM353.572 231.768C347.516 228.485 340.091 227.633 337.101 229.498C334.938 230.846 335.229 233.873 337.941 236.536C341.107 239.645 345.816 240.43 350.275 237.844C352.229 236.704 353.563 234.811 354.239 232.449L354.311 232.183C354.149 232.089 353.986 231.996 353.821 231.904L353.572 231.768ZM333.859 207.151L333.562 207.134C329.118 206.885 326.187 207.293 324.742 208.192C323.724 208.825 323.655 209.738 324.629 211.451C325.737 213.353 326.811 214.038 327.929 213.714C329.479 213.263 331.461 211.231 333.718 207.395L333.859 207.151ZM328.649 186.261L328.636 186.253C325.062 184.442 319.421 184.355 314.988 185.886C312.967 186.583 311.509 187.534 310.903 188.47C310.424 189.21 310.499 189.913 311.382 190.938C313.902 193.865 317.895 194.962 321.523 193.656C324.421 192.613 326.884 190.176 328.584 186.409L328.649 186.261ZM315.74 160.428L315.707 160.417C311.364 159.036 306.743 158.606 302.939 159.301C298.761 160.064 297.838 162.739 299.882 166.431C302.122 170.476 306.933 173.424 311.518 173.098C314.407 172.891 315.804 168.503 315.747 160.937L315.74 160.428Z" fill="#00479F"/>
<path fill-rule="evenodd" clip-rule="evenodd" d="M479.398 301.38C478.575 295.039 480.728 284.829 483.388 275.507C480.285 275.507 477.308 275.444 474.396 275.317C470.406 288.571 466.987 301.444 466.987 301.444C466.923 301.698 466.923 302.015 466.86 302.268C466.86 302.332 466.797 302.458 466.797 302.522C466.733 302.712 466.733 302.902 466.67 303.093C466.67 303.156 466.607 303.283 466.607 303.346V303.41C471.103 303.6 475.599 303.663 480.031 303.663C479.715 302.902 479.461 302.141 479.398 301.38Z" fill="#00479F"/>
<path fill-rule="evenodd" clip-rule="evenodd" d="M422.217 270.498C419.747 261.937 409.679 252.805 411.262 254.073C414.998 259.59 417.214 266.249 417.214 273.351C417.214 292.312 401.826 307.722 382.893 307.722C379.347 307.722 375.927 307.151 372.698 306.137C377.953 309.751 384.286 311.844 391.061 311.844C402.84 311.844 413.098 305.566 418.797 296.181C421.963 297.195 425.32 298.083 428.802 298.844C428.739 292.059 430.449 282.927 432.412 274.81C432.665 273.859 432.855 272.907 432.982 271.956C428.802 271.512 425.13 270.941 422.217 270.498Z" fill="#00479F"/>
<path fill-rule="evenodd" clip-rule="evenodd" d="M399.23 265.615L390.808 265.171C390.808 276.205 388.212 282.99 386.565 286.224L394.798 289.332C405.943 278.932 400.94 268.405 399.23 265.615Z" fill="#00479F"/>
<path fill-rule="evenodd" clip-rule="evenodd" d="M400.37 248.302L391.061 246.971C373.141 246.971 358.64 261.493 358.64 279.439C358.64 286.098 360.666 292.249 364.085 297.449C369.405 301.634 375.99 303.98 382.893 303.98C399.737 303.98 413.415 290.283 413.415 273.415C413.415 263.015 408.222 253.883 400.37 248.302ZM396.444 292.883C396.064 293.2 395.621 293.327 395.177 293.327C394.924 293.327 394.734 293.263 394.481 293.2L383.083 288.888C382.513 288.698 382.069 288.19 381.943 287.619C381.753 287.049 381.879 286.415 382.259 285.971C382.323 285.907 387.452 278.805 386.945 263.141C386.945 262.634 387.135 262.063 387.515 261.746C387.895 261.366 388.402 261.176 388.972 261.239L400.433 261.873C401.003 261.873 401.51 262.19 401.89 262.634C401.953 262.761 413.098 278.488 396.444 292.883Z" fill="#00479F"/>
<path fill-rule="evenodd" clip-rule="evenodd" d="M364.972 298.717C364.909 298.654 364.909 298.717 364.972 298.717C364.909 298.654 364.909 298.717 364.972 298.717Z" fill="#00479F"/>
<path fill-rule="evenodd" clip-rule="evenodd" d="M560.263 303.917C577.107 303.917 590.785 290.219 590.785 273.351C590.785 263.332 585.972 254.454 578.5 248.873C574.827 247.605 570.964 246.971 567.101 246.971C551.397 246.971 538.289 258.132 535.313 273.034C532.463 273.351 529.677 273.605 526.891 273.795C523.155 283.624 519.419 294.722 517.962 299.224C517.646 300.112 517.392 301 517.139 301.888C517.139 301.951 517.139 301.951 517.076 302.015C527.587 301.19 536.263 300.239 541.709 299.541C547.028 303.79 553.36 303.917 560.263 303.917ZM563.492 267.073C568.368 267.073 572.357 271.068 572.357 275.951C572.357 280.834 568.368 284.829 563.492 284.829C558.616 284.829 554.627 280.834 554.627 275.951C554.627 271.068 558.616 267.073 563.492 267.073Z" fill="#00479F"/>
<path fill-rule="evenodd" clip-rule="evenodd" d="M563.492 281.088C566.29 281.088 568.558 278.816 568.558 276.015C568.558 273.213 566.29 270.941 563.492 270.941C560.694 270.941 558.426 273.213 558.426 276.015C558.426 278.816 560.694 281.088 563.492 281.088Z" fill="#00479F"/>
<path fill-rule="evenodd" clip-rule="evenodd" d="M588.695 254.073C592.431 259.59 594.647 266.185 594.647 273.351C594.647 292.312 579.26 307.722 560.326 307.722C556.78 307.722 553.36 307.151 550.131 306.137C550.004 306.137 549.814 306.137 549.561 306.073C555.83 309.751 563.745 311.907 570.584 311.907C588.505 311.907 603.006 297.385 603.006 279.439C602.943 269.166 597.054 260.034 588.695 254.073Z" fill="#00479F"/>
<path fill-rule="evenodd" clip-rule="evenodd" d="M415.005 200.652C415.997 200.453 416.963 201.067 417.216 202.035L417.241 202.144C417.254 202.21 417.809 203.97 418.461 205.953L418.813 207.021C419.533 209.196 420.349 211.601 421.214 214.094L421.651 215.348C424.683 224.017 427.753 232.14 430.599 238.802L431.114 239.997C435.969 251.166 437.076 263.574 434.259 275.381L434.023 276.374C431.232 288.222 430.037 297.584 431.051 303.068C432.014 308.35 439.304 311.8 448.28 311.488C457.414 311.171 464.393 307.127 465.1 301.218C465.111 301.127 465.128 301.038 465.152 300.95L465.792 298.591C466.304 296.718 466.88 294.631 467.508 292.383L468.28 289.632C469.7 284.592 471.147 279.59 472.57 274.831L472.958 273.54C473.381 272.134 473.798 270.766 474.207 269.439L474.694 267.867C477.554 258.69 479.905 252.015 481.615 248.486C482.073 247.541 483.21 247.147 484.154 247.606C485.098 248.064 485.491 249.203 485.033 250.148L484.871 250.489C483.334 253.771 481.185 259.868 478.6 268.11L478.321 269.001C477.761 270.799 477.185 272.681 476.596 274.638C475.055 279.756 473.48 285.188 471.936 290.666L471.167 293.408C470.882 294.426 470.608 295.411 470.347 296.359L469.107 300.879L468.853 301.816L468.841 301.915C467.728 309.895 459.256 314.82 448.734 315.278L448.412 315.291C437.785 315.66 428.701 311.361 427.314 303.756C426.143 297.42 427.482 287.327 430.564 274.495C433.149 263.661 432.188 252.28 427.834 241.99L427.309 240.771C422.004 228.393 414.076 205.699 413.515 202.89C413.309 201.86 413.976 200.858 415.005 200.652Z" fill="#0B4388"/>
<path fill-rule="evenodd" clip-rule="evenodd" d="M443.296 285.657C444.272 285.923 444.862 286.905 444.656 287.883L444.276 289.353C444.206 289.627 444.133 289.917 444.057 290.222C443.625 291.967 443.192 293.834 442.789 295.748C442.377 297.701 442.019 299.593 441.731 301.381L441.619 302.095C440.953 306.445 440.773 309.837 441.174 311.774C441.387 312.803 440.727 313.81 439.7 314.024C438.673 314.237 437.667 313.576 437.454 312.548C436.908 309.914 437.152 305.906 437.98 300.774C438.279 298.922 438.648 296.971 439.072 294.962C439.433 293.247 439.817 291.569 440.204 289.981L440.521 288.7C440.595 288.408 440.665 288.131 440.733 287.872L440.964 286.993C441.239 285.979 442.283 285.381 443.296 285.657Z" fill="#0B4388"/>
<path fill-rule="evenodd" clip-rule="evenodd" d="M452.508 286.763C453.469 287.079 454.008 288.09 453.752 289.056L453.721 289.164C453.691 289.253 453.634 289.431 453.554 289.688L453.262 290.634C453.21 290.805 453.157 290.982 453.103 291.166C452.635 292.739 452.167 294.429 451.731 296.168C451.245 298.106 450.829 299.983 450.504 301.751L450.379 302.455C449.761 306.049 449.589 308.93 449.937 310.759L449.973 310.933C450.195 311.96 449.544 312.973 448.519 313.196C447.494 313.419 446.482 312.767 446.26 311.74C445.706 309.185 445.942 305.566 446.768 301.064C447.108 299.208 447.541 297.253 448.046 295.241C448.44 293.67 448.859 292.139 449.28 290.694L449.626 289.53L450.111 287.978C450.438 286.979 451.511 286.436 452.508 286.763Z" fill="#0B4388"/>
<path fill-rule="evenodd" clip-rule="evenodd" d="M481.615 248.423C482.073 247.478 483.21 247.083 484.154 247.542C485.098 248.001 485.491 249.139 485.033 250.084L484.871 250.425C483.334 253.707 481.185 259.804 478.6 268.046L478.321 268.938C477.761 270.736 477.185 272.618 476.596 274.575C475.055 279.692 473.48 285.125 471.936 290.603L471.167 293.345C470.882 294.363 470.608 295.348 470.347 296.295L469.107 300.816L468.851 301.762L468.833 301.888C468.061 306.971 464.378 310.854 458.848 313.119L458.566 313.233C457.59 313.619 456.486 313.139 456.101 312.162C455.716 311.185 456.195 310.08 457.17 309.694C461.775 307.874 464.609 304.895 465.103 301.132C465.114 301.049 465.13 300.967 465.152 300.887L465.792 298.528C466.304 296.654 466.88 294.567 467.508 292.32L468.28 289.568C469.7 284.529 471.147 279.526 472.57 274.768L472.958 273.476C473.381 272.07 473.798 270.702 474.207 269.376L474.694 267.804C477.554 258.627 479.905 251.952 481.615 248.423Z" fill="#0B4388"/>
<path fill-rule="evenodd" clip-rule="evenodd" d="M559.612 196.049L559.723 196.051C560.771 196.103 561.579 196.996 561.527 198.046C560.861 211.481 556.001 224.703 547.673 239.252L547.139 240.177C544.24 245.136 535.957 258.077 534.891 260.058L534.661 260.485C530.875 267.644 524.971 283.903 519.751 299.864L519.672 300.09C519.504 300.575 519.359 301.045 519.135 301.821L518.966 302.41L518.864 302.809C514.444 318.672 479.646 317.539 477.514 301.562C476.704 295.3 478.503 285.428 482.113 273.067L482.264 272.551C483.891 267.121 484.587 261.378 484.339 255.617C483.992 247.91 480.59 240.665 474.851 235.256L474.567 234.992C468.209 229.148 463.82 221.996 462.945 213.817C462.833 212.773 463.588 211.835 464.631 211.723C465.674 211.611 466.611 212.367 466.722 213.412C467.472 220.415 471.265 226.695 476.842 231.915L477.137 232.189C483.779 238.297 487.736 246.595 488.135 255.45C488.392 261.429 487.702 267.391 486.078 273.051L485.621 274.61C482.252 286.246 480.571 295.58 481.281 301.065C481.979 306.298 488.892 310.083 497.728 310.331C506.606 310.579 513.806 307.175 515.244 301.638L515.312 301.365L515.61 300.336C515.82 299.623 515.969 299.159 516.157 298.632L516.808 296.65C521.984 280.964 527.658 265.49 531.432 258.463L531.639 258.084C533.098 255.48 541.452 242.427 544.035 237.954C552.301 223.642 557.092 210.764 557.732 197.857C557.782 196.845 558.613 196.057 559.612 196.049Z" fill="#0B4388"/>
<path fill-rule="evenodd" clip-rule="evenodd" d="M495.854 285.657C496.831 285.923 497.421 286.905 497.215 287.883L496.834 289.353C496.765 289.627 496.692 289.917 496.616 290.222C496.184 291.967 495.751 293.834 495.348 295.748C494.936 297.701 494.578 299.593 494.29 301.381L494.177 302.095C493.511 306.445 493.331 309.837 493.733 311.774C493.946 312.803 493.286 313.81 492.259 314.024C491.232 314.237 490.226 313.576 490.013 312.548C489.467 309.914 489.711 305.906 490.539 300.774C490.838 298.922 491.207 296.971 491.63 294.962C491.992 293.247 492.376 291.569 492.763 289.981L493.08 288.7C493.153 288.408 493.224 288.131 493.291 287.872L493.523 286.993C493.798 285.979 494.842 285.381 495.854 285.657Z" fill="#0B4388"/>
<path fill-rule="evenodd" clip-rule="evenodd" d="M505.066 286.636C506.028 286.952 506.567 287.963 506.311 288.93L506.279 289.037C506.25 289.126 506.193 289.304 506.112 289.561L505.821 290.507C505.769 290.678 505.716 290.855 505.661 291.039C505.194 292.612 504.726 294.302 504.289 296.042C503.803 297.979 503.388 299.856 503.063 301.624L502.938 302.329C502.32 305.922 502.148 308.803 502.496 310.633L502.531 310.806C502.754 311.833 502.103 312.846 501.078 313.069C500.052 313.292 499.041 312.64 498.818 311.613C498.265 309.058 498.501 305.439 499.326 300.937C499.666 299.082 500.1 297.126 500.605 295.114C500.999 293.543 501.417 292.013 501.839 290.567L502.185 289.403L502.669 287.851C502.996 286.852 504.07 286.309 505.066 286.636Z" fill="#0B4388"/>
<path fill-rule="evenodd" clip-rule="evenodd" d="M669.243 103.463C627.771 103.463 593.14 130.956 589.402 166.68C589.394 166.754 589.391 166.829 589.392 166.904L590.405 240.909C590.419 241.953 591.271 242.79 592.313 242.785L677.483 242.405C677.537 242.405 677.592 242.402 677.645 242.397C718.181 238.737 749.411 208.897 749.411 173.093C749.411 134.557 713.481 103.463 669.243 103.463ZM669.243 107.268C711.496 107.268 745.611 136.792 745.611 173.093L745.602 174.102C745.024 207.034 716.189 234.588 678.462 238.495L677.379 238.601L594.178 238.972L593.192 166.972L593.181 167.076C596.704 133.4 629.621 107.268 669.243 107.268Z" fill="#0B4388"/>
<path fill-rule="evenodd" clip-rule="evenodd" d="M623.713 191.8C623.713 192.498 623.46 193.068 623.016 193.512C622.573 193.956 622.003 194.21 621.307 194.21C620.673 194.21 620.104 193.956 619.597 193.512C619.09 193.068 618.9 192.498 618.9 191.8V159.966C618.9 159.268 619.154 158.698 619.597 158.254C620.04 157.81 620.61 157.556 621.307 157.556C621.94 157.556 622.51 157.81 623.016 158.254C623.46 158.698 623.713 159.268 623.713 159.966V170.937C625.739 169.351 628.146 168.59 630.869 168.59C632.452 168.59 633.971 168.907 635.428 169.541C636.884 170.176 638.151 171 639.227 172.078C640.304 173.156 641.19 174.424 641.824 175.883C642.457 177.341 642.773 178.863 642.773 180.512V191.737C642.773 192.434 642.52 193.005 642.077 193.449C641.634 193.893 641.064 194.146 640.367 194.146C639.734 194.146 639.164 193.893 638.657 193.449C638.214 193.005 637.961 192.434 637.961 191.737V180.512C637.961 179.561 637.771 178.61 637.391 177.722C637.011 176.834 636.504 176.073 635.871 175.439C635.238 174.805 634.478 174.298 633.591 173.917C632.705 173.537 631.818 173.346 630.805 173.346C629.792 173.346 628.906 173.537 628.019 173.917C627.132 174.298 626.373 174.805 625.739 175.439C625.106 176.073 624.6 176.834 624.22 177.722C623.84 178.61 623.65 179.498 623.65 180.512V191.8H623.713Z" fill="#00479F"/>
<path fill-rule="evenodd" clip-rule="evenodd" d="M665.887 186.98C666.583 186.98 667.153 187.234 667.596 187.678C668.04 188.122 668.293 188.693 668.293 189.39C668.293 190.088 668.04 190.658 667.596 191.102C665.253 193.195 662.467 194.21 659.238 194.21C655.692 194.21 652.715 192.941 650.182 190.468C647.713 187.995 646.446 184.951 646.446 181.4C646.446 177.849 647.713 174.868 650.182 172.332C652.652 169.859 655.692 168.59 659.238 168.59C662.721 168.59 665.76 169.859 668.293 172.332C669.559 173.537 670.509 174.932 671.079 176.454C671.712 177.976 672.029 179.624 672.029 181.4C672.029 182.098 671.776 182.668 671.333 183.112C670.889 183.556 670.319 183.81 669.623 183.81H651.512C651.765 184.634 652.145 185.395 652.652 186.093C653.159 186.79 653.729 187.361 654.425 187.868C655.122 188.376 655.818 188.756 656.641 189.01C657.465 189.263 658.288 189.454 659.174 189.454C660.188 189.454 661.074 189.327 661.961 189.01C662.784 188.693 663.607 188.249 664.304 187.615C664.747 187.234 665.317 187.044 665.887 186.98ZM666.9 178.99C666.647 178.166 666.267 177.405 665.76 176.707C665.253 176.01 664.684 175.439 663.987 174.932C663.29 174.424 662.594 174.044 661.771 173.79C660.947 173.537 660.124 173.41 659.238 173.41C658.351 173.41 657.528 173.537 656.705 173.79C655.882 174.044 655.122 174.424 654.425 174.932C653.729 175.439 653.159 176.01 652.652 176.707C652.145 177.405 651.765 178.166 651.512 178.99H666.9Z" fill="#00479F"/>
<path fill-rule="evenodd" clip-rule="evenodd" d="M675.448 191.8V159.966C675.448 159.268 675.702 158.698 676.145 158.254C676.588 157.81 677.158 157.556 677.855 157.556C678.551 157.556 679.121 157.81 679.565 158.254C680.008 158.698 680.261 159.268 680.261 159.966V189.39H681.338C681.971 189.39 682.541 189.644 683.047 190.088C683.491 190.532 683.744 191.102 683.744 191.8C683.744 192.434 683.491 193.005 683.047 193.512C682.604 193.956 682.034 194.21 681.338 194.21H677.855C677.222 194.21 676.652 193.956 676.208 193.512C675.638 193.068 675.448 192.498 675.448 191.8Z" fill="#00479F"/>
<path fill-rule="evenodd" clip-rule="evenodd" d="M686.404 191.8V159.966C686.404 159.268 686.657 158.698 687.1 158.254C687.543 157.81 688.113 157.556 688.81 157.556C689.506 157.556 690.076 157.81 690.52 158.254C690.963 158.698 691.216 159.268 691.216 159.966V189.39H692.293C692.926 189.39 693.496 189.644 694.002 190.088C694.446 190.532 694.699 191.102 694.699 191.8C694.699 192.434 694.446 193.005 694.002 193.512C693.559 193.956 692.989 194.21 692.293 194.21H688.81C688.177 194.21 687.607 193.956 687.163 193.512C686.657 193.068 686.404 192.498 686.404 191.8Z" fill="#00479F"/>
<path fill-rule="evenodd" clip-rule="evenodd" d="M723.195 181.4C723.195 184.951 721.928 187.995 719.458 190.468C716.926 192.941 713.886 194.21 710.403 194.21C706.857 194.21 703.881 192.941 701.348 190.468C698.878 187.995 697.612 184.951 697.612 181.4C697.612 177.849 698.878 174.868 701.348 172.332C703.818 169.859 706.857 168.59 710.403 168.59C713.886 168.59 716.926 169.859 719.458 172.332C720.725 173.6 721.611 174.995 722.245 176.454C722.878 177.976 723.195 179.624 723.195 181.4ZM710.403 173.346C709.263 173.346 708.25 173.537 707.237 173.98C706.224 174.424 705.401 174.995 704.704 175.693C704.007 176.39 703.438 177.278 702.994 178.229C702.551 179.18 702.361 180.259 702.361 181.337C702.361 182.415 702.551 183.493 702.994 184.444C703.438 185.395 704.007 186.283 704.704 186.98C705.401 187.678 706.287 188.312 707.237 188.693C708.187 189.073 709.263 189.327 710.403 189.327C711.543 189.327 712.556 189.137 713.506 188.693C714.456 188.249 715.342 187.678 716.039 186.98C716.736 186.219 717.305 185.395 717.749 184.444C718.192 183.493 718.382 182.415 718.382 181.337C718.382 180.259 718.192 179.18 717.749 178.229C717.305 177.278 716.736 176.39 716.039 175.693C715.342 174.932 714.456 174.361 713.506 173.98C712.556 173.6 711.543 173.346 710.403 173.346Z" fill="#00479F"/>
<path fill-rule="evenodd" clip-rule="evenodd" d="M885.43 311.337C886.479 311.337 887.33 312.188 887.33 313.239C887.33 314.252 886.539 315.08 885.542 315.138L885.43 315.141H2.12676C1.07758 315.141 0.227051 314.29 0.227051 313.239C0.227051 312.226 1.01791 311.398 2.01514 311.34L2.12676 311.337H885.43Z" fill="#0B4388"/>
</svg>
