<svg width="108" height="78" viewBox="0 0 108 78" fill="none" xmlns="http://www.w3.org/2000/svg">
<path d="M105.594 16.8972C96.6007 15.7457 89.6608 15.1254 76.4019 14.268C68.0095 13.7599 60.2868 13.1939 59.206 13.023C58.1253 12.852 57.1163 12.899 56.9744 13.0761C56.7866 13.2743 57.8032 15.9851 59.2145 19.0718C60.6134 22.1921 61.7852 24.9988 61.8196 25.3176C61.8876 25.6489 61.3532 27.7084 60.7018 29.8777C59.1709 34.9352 57.7229 41.2095 57.8807 42.2246C58.0642 43.4788 59.1729 43.1626 64.4199 40.324C66.2177 39.3832 67.8612 38.653 68.0959 38.74C68.3307 38.827 69.2902 40.56 70.1835 42.5747C73.2129 49.3221 73.5834 50.0716 74.1152 50.0774C74.3873 50.0634 76.3799 48.3912 78.5308 46.395C90.8673 34.8192 98.6068 27.93 104.105 23.6923C106.42 21.8716 108.625 19.9339 108.963 19.3319C109.471 18.3723 109.466 18.1792 108.858 17.7625C108.472 17.4664 108.061 17.2375 107.96 17.2003C107.847 17.1966 106.788 17.0718 105.594 16.8972ZM102.622 18.7422C100.396 19.2948 94.9924 20.0857 83.2849 21.5251C76.2612 22.366 69.0746 23.3379 67.3086 23.6783C65.555 23.9851 63.9519 24.1946 63.7508 24.12C62.8454 23.7845 58.7675 14.9267 59.399 14.6633C60.043 14.3663 101.439 17.9212 102.939 18.4006C103.287 18.4913 103.17 18.601 102.622 18.7422ZM101.847 23.1999C100.878 24.0652 97.2101 27.0681 93.7636 29.8851C85.4376 36.7101 81.0307 40.4722 77.3473 43.9284C75.6977 45.4982 74.1729 46.7315 74.0052 46.6694C73.804 46.5948 72.7469 44.4047 71.5798 41.7912C70.4462 39.19 69.0482 36.3761 68.4889 35.5184L67.4211 33.9748L69.5044 33.2927C70.638 32.9093 76.6992 30.7551 82.9779 28.5284C92.9795 25.0029 103.262 21.5431 103.53 21.6425C103.597 21.6674 102.837 22.3806 101.847 23.1999ZM97.717 21.172C97.6921 21.2392 93.6932 22.6654 88.8491 24.314C79.8259 27.3603 76.5715 28.5267 68.9799 31.4148C64.7931 33.0392 64.6427 33.1365 63.1242 35.1757C60.8591 38.201 60.5448 38.1228 61.7666 34.8257C62.3401 33.2781 63.2494 30.5156 63.7971 28.7289L64.7468 25.4457L79.5388 23.5041C87.6798 22.4267 95.0714 21.416 95.9712 21.252C97.7123 20.9789 97.7918 20.9701 97.717 21.172ZM66.7697 36.144C67.1777 36.7926 67.0943 36.9148 64.9035 38.0927C63.6452 38.8125 62.5288 39.3554 62.4617 39.3305C62.2605 39.256 63.2613 37.7902 64.5218 36.3441C65.6529 35.0414 66.0505 34.9974 66.7697 36.144Z" fill="black"/>
<path d="M52.5266 33.8716C51.9024 34.072 51.437 34.3004 51.5285 34.396C51.7457 34.7232 54.7754 34.7666 54.7371 34.4133C54.6877 33.7474 53.6805 33.4975 52.5266 33.8716Z" fill="black"/>
<path d="M43.8998 36.401C42.5014 37.2477 41.7115 38.0986 42.1586 38.2643C42.5758 38.4189 45.3826 37.4301 46.0523 36.9036C47.0209 36.1189 47.0272 36.0106 46.1927 35.7014C45.7159 35.5247 44.9516 35.7579 43.8998 36.401Z" fill="black"/>
<path d="M35.8848 40.2843C34.5623 40.5027 31.9973 42.803 31.6726 44.1414C31.3102 45.4659 31.9933 46.5109 32.4279 45.3382C32.5772 44.9351 33.4604 44.0538 34.4022 43.3608C37.1764 41.3047 37.7782 40.0273 35.8848 40.2843Z" fill="black"/>
<path d="M37.7001 48.6009C36.4701 48.4941 35.5624 48.5941 35.6189 48.8332C35.7215 49.0457 37.2168 49.9053 38.946 50.7206C41.827 52.05 42.1601 52.1298 42.5967 51.6371C43.7183 50.1766 41.6881 48.9007 37.7001 48.6009Z" fill="black"/>
<path d="M45.2345 53.5037C45.0155 54.0946 45.3092 55.7826 45.7031 56.2982C46.8959 57.8154 48.1226 56.422 47.08 54.7252C46.4719 53.6599 45.4206 53.0015 45.2345 53.5037Z" fill="black"/>
<path d="M30.5273 47.9189C29.6939 47.9311 25.3388 50.2508 25.1557 50.7449C24.8941 51.4508 25.4217 51.4857 26.8335 50.885C27.5553 50.5905 28.1744 50.3785 28.2695 50.4137C28.3645 50.4489 28.2221 51.3193 27.9958 52.3192C27.7563 53.3544 27.718 54.6246 27.8649 55.2008C28.1791 56.2004 28.1791 56.2004 29.1399 53.0242C29.9307 50.3068 30.1903 49.8009 30.8879 49.377C32.0331 48.7177 31.838 47.8828 30.5273 47.9189Z" fill="black"/>
<path d="M21.0073 53.0895C19.5176 53.8043 17.0245 56.2972 16.0422 58.1215C15.3736 59.4093 15.3611 59.4431 16.1372 59.0013C16.5777 58.7422 17.7098 57.8565 18.6235 57.0433C19.5709 56.2427 20.8703 55.1118 21.5244 54.5864C22.4467 53.8533 22.6642 53.4731 22.4739 53.0571C22.2835 52.6411 21.9306 52.6638 21.0073 53.0895Z" fill="black"/>
<path d="M29.7512 58.9706C28.1457 59.2363 30.6368 63.0281 32.3689 62.9169C33.1204 62.8727 33.0791 62.7857 31.9932 61.4509C31.3281 60.6666 30.8364 59.9106 30.8831 59.7845C31.035 59.3747 30.3088 58.8545 29.7512 58.9706Z" fill="black"/>
<path d="M37.9565 64.3763C36.2055 64.0644 35.206 65.716 36.7853 66.3012C38.2097 66.8291 40.946 66.3828 40.658 65.6395C40.4957 65.3172 38.8845 64.533 37.9565 64.3763Z" fill="black"/>
<path d="M11.1347 62.4384C9.44421 63.2032 6.69313 68.1353 7.77563 68.5365C8.12358 68.6654 12.2061 64.7678 13.0317 63.4892C13.5272 62.7453 13.4742 62.5324 12.8556 62.3032C12.4304 62.1456 11.6598 62.2079 11.1347 62.4384Z" fill="black"/>
<path d="M2.63701 71.8298C2.34773 71.9214 1.72217 72.7237 1.30814 73.6441C0.687433 74.9253 0.589265 75.4855 0.843224 76.3751L1.14156 77.4401L1.8115 76.8134C2.93238 75.7573 4.23924 72.8212 3.8557 72.2814C3.45304 71.6947 3.32476 71.6472 2.63701 71.8298Z" fill="black"/>
</svg>
