<svg width="96" height="127" viewBox="0 0 96 127" fill="none" xmlns="http://www.w3.org/2000/svg">
<path d="M34.8408 18.4907C24.369 9.98882 18.7606 7.33742 15.6884 9.18928C12.6816 11.0017 12.7993 12.084 16.1722 14.1314C22.0291 17.7862 40.9069 25.3016 41.0507 24.0617C41.0637 23.7877 38.3052 21.2813 34.8408 18.4907Z" fill="black"/>
<path d="M75.6184 108.902C73.9505 116.617 73.7883 123.772 75.2282 124.559C77.324 125.561 78.2509 124.915 78.8716 122.014C79.5956 118.703 78.82 110.283 77.5117 106.803L76.6139 104.294L75.6184 108.902Z" fill="black"/>
<path d="M26.0369 47.0062C20.4042 45.6595 12.3646 44.9731 9.54534 45.531C7.82029 45.8683 6.75908 48.6156 8.04996 49.5938C10.3867 51.4345 28.9986 51.1925 31.1056 49.3076C31.825 48.6106 30.5996 48.032 26.0369 47.0062Z" fill="black"/>
<path d="M54.3497 96.5445C51.1079 99.4689 45.3998 108.643 44.5753 112.228C43.9285 115.087 43.9947 115.489 45.2609 115.696C46.4237 115.877 47.2609 115.372 49.2011 113.056C52.002 109.691 56.4793 99.4948 56.3515 96.661C56.2409 94.8753 56.1375 94.8494 54.3497 96.5445Z" fill="black"/>
<path d="M37.5696 75.064C32.4269 77.0348 22.5016 84.9287 21.6422 87.8789C21.5117 88.3918 22.0248 88.9512 22.9248 89.2773C25.8305 90.3053 38.6993 79.8554 39.924 75.469C40.2754 74.3016 39.8638 74.2023 37.5696 75.064Z" fill="black"/>
</svg>
