<svg width="75" height="73" viewBox="0 0 75 73" fill="none" xmlns="http://www.w3.org/2000/svg">
<path d="M6.47656 0.514606C4.99262 1.72372 5.77383 11.2864 7.74024 16.2055C8.77235 18.7911 8.83181 18.7963 9.54271 17.5196C10.469 15.8357 10.2163 5.71066 9.1829 2.45549C8.58424 0.3947 7.45307 -0.373733 6.47656 0.514606Z" fill="black"/>
<path d="M29.8921 3.73827C27.9446 5.69132 23.8583 21.2596 25.2688 21.383C26.6794 21.5065 32.2241 10.2536 32.5569 6.44876C32.7669 4.04876 31.1905 2.43623 29.8921 3.73827Z" fill="black"/>
<path d="M52.8787 20.3592C48.6283 24.873 41.8968 33.3405 41.8037 34.4049C41.6899 35.7057 54.1551 26.7865 57.1195 23.4114C59.2948 20.9205 59.5677 19.1569 58.2028 17.1309L57.2622 15.6782L52.8787 20.3592Z" fill="black"/>
<path d="M61.6584 46.9549C53.6727 49.4701 49.9274 50.9009 49.88 51.4425C49.8221 52.1044 52.3611 51.7808 60.742 50.0886C69.0018 48.4463 70.9297 47.7661 71.035 46.5625C71.1772 44.9378 67.7795 45.065 61.6584 46.9549Z" fill="black"/>
<path d="M50.6585 66.8431C50.5864 67.6675 55.7308 69.7789 61.3538 71.157C66.2177 72.4132 67.4469 72.5761 68.2637 72.0384C69.6431 71.1623 68.6671 70.1354 65.5612 69.0884C62.4505 68.0963 50.7066 66.2936 50.6585 66.8431Z" fill="black"/>
</svg>
