<svg width="1487" height="748" viewBox="0 0 1487 748" fill="none" xmlns="http://www.w3.org/2000/svg">
<path fill-rule="evenodd" clip-rule="evenodd" d="M69.3553 261.228L69.3283 261.39C69.0032 263.689 71.3407 265.497 73.5059 264.547L122.255 243.154L158.652 326.402C159.047 327.306 159.862 327.958 160.83 328.145L191.83 334.145C193.456 334.46 195.028 333.399 195.345 331.774L220.445 202.974C220.762 201.348 219.7 199.772 218.074 199.455L89.2742 174.355C87.6471 174.038 86.0712 175.101 85.7553 176.728L69.3553 261.228ZM91.0734 180.818L213.981 204.77L190.028 327.685L163.516 322.553L126.549 237.998L126.474 237.839C125.759 236.431 124.059 235.81 122.595 236.453L76.3364 256.752L91.0734 180.818Z" fill="#FE7624"/>
<path fill-rule="evenodd" clip-rule="evenodd" d="M98.7672 218.97C99.1025 217.408 100.598 216.393 102.157 216.635L102.33 216.667L193.63 236.267C195.25 236.615 196.281 238.21 195.934 239.83C195.598 241.392 194.103 242.407 192.544 242.165L192.371 242.133L101.071 222.533C99.4507 222.185 98.4194 220.59 98.7672 218.97Z" fill="#003E9B"/>
<path fill-rule="evenodd" clip-rule="evenodd" d="M123.668 242.068C124.004 240.506 125.5 239.493 127.059 239.735L127.232 239.767L187.132 252.667C188.752 253.016 189.782 254.612 189.433 256.232C189.097 257.793 187.601 258.807 186.043 258.565L185.869 258.533L125.969 245.633C124.349 245.284 123.319 243.688 123.668 242.068Z" fill="#003E9B"/>
<path fill-rule="evenodd" clip-rule="evenodd" d="M95.465 236.081C95.7946 234.518 97.2861 233.498 98.8458 233.733L99.0193 233.765L117.519 237.665C119.141 238.006 120.178 239.598 119.836 241.219C119.506 242.782 118.015 243.802 116.455 243.567L116.282 243.535L97.7817 239.635C96.1605 239.294 95.1233 237.702 95.465 236.081Z" fill="#003E9B"/>
<path fill-rule="evenodd" clip-rule="evenodd" d="M133.168 262.867C133.505 261.306 135.001 260.292 136.56 260.535L136.733 260.568L160.833 265.768C162.453 266.117 163.483 267.713 163.133 269.333C162.796 270.894 161.3 271.908 159.741 271.665L159.568 271.633L135.468 266.433C133.848 266.083 132.819 264.487 133.168 262.867Z" fill="#003E9B"/>
<path fill-rule="evenodd" clip-rule="evenodd" d="M122.619 236.474L2.40076 289.02C0.88258 289.684 0.189785 291.452 0.853355 292.97L53.399 413.189C54.0625 414.707 55.8312 415.4 57.3494 414.736L177.568 362.191C179.086 361.527 179.779 359.758 179.115 358.24L126.57 238.022C125.906 236.504 124.137 235.811 122.619 236.474ZM122.273 243.174L172.416 357.894L57.6942 408.037L7.55178 293.317L122.273 243.174Z" fill="#FE7624"/>
<path fill-rule="evenodd" clip-rule="evenodd" d="M105.26 297.225C106.792 296.595 108.545 297.327 109.175 298.86C109.782 300.338 109.123 302.02 107.701 302.703L107.54 302.775L50.8403 326.075C49.3078 326.705 47.5549 325.973 46.9252 324.44C46.3179 322.963 46.9767 321.28 48.3986 320.597L48.5597 320.525L105.26 297.225Z" fill="#003E9B"/>
<path fill-rule="evenodd" clip-rule="evenodd" d="M86.6625 330.124C88.1956 329.496 89.9477 330.229 90.576 331.763C91.1818 333.241 90.5213 334.923 89.0987 335.605L88.9375 335.676L62.3375 346.576C60.8044 347.204 59.0523 346.471 58.424 344.938C57.8182 343.459 58.4787 341.777 59.9013 341.096L60.0625 341.024L86.6625 330.124Z" fill="#003E9B"/>
<path fill-rule="evenodd" clip-rule="evenodd" d="M1483.6 0H839.1C837.443 0 836.1 1.34315 836.1 3V371.9C836.1 408.657 865.943 438.5 902.7 438.5H1420C1456.79 438.5 1486.6 408.723 1486.6 371.9V3C1486.6 1.34315 1485.26 0 1483.6 0ZM842.1 6H1480.6V371.9C1480.6 405.408 1453.48 432.5 1420 432.5H902.7L901.699 432.492C868.717 431.956 842.1 405.009 842.1 371.9V6Z" fill="#003E9B"/>
<path fill-rule="evenodd" clip-rule="evenodd" d="M1193.2 280.8C1193.2 280.8 1169.2 287 1163.9 264.7C1163.9 264.7 1182.5 256.6 1193.2 280.8Z" fill="#FE7624"/>
<path fill-rule="evenodd" clip-rule="evenodd" d="M1137.9 223.4C1140.6 225.1 1143.6 226.3 1146.6 227.3C1143.7 231.2 1142.3 236.4 1143.3 241.8C1144.3 247.8 1147.9 252.6 1152.4 254.9C1151.2 262.2 1149.1 272.7 1146.7 276.4C1145.5 278.2 1146.2 280.9 1148.2 282.5C1150.2 284 1152.8 283.8 1154 282C1157.5 276.6 1159.9 263.4 1161 256.3C1161.2 256.3 1161.3 256.3 1161.5 256.2C1169.9 254.6 1175.4 245.5 1173.8 235.8C1173.3 232.7 1172 229.9 1170.3 227.6C1179.6 225.2 1188.2 219.9 1194.2 211.9C1207.1 194.6 1202.9 171.7 1184.8 160.7C1166.7 149.7 1141.5 154.8 1128.6 172C1115.6 189.4 1119.8 212.3 1137.9 223.4Z" fill="#FE7624"/>
<path fill-rule="evenodd" clip-rule="evenodd" d="M940.456 237.325L924.856 317.225C924.73 317.869 924.819 318.536 925.108 319.124L952.708 375.224C953.123 376.067 953.908 376.666 954.829 376.845L1046.63 394.645C1048.26 394.96 1049.83 393.898 1050.15 392.272L1075.15 263.472C1075.46 261.845 1074.4 260.271 1072.77 259.955L943.972 234.955C942.347 234.639 940.773 235.7 940.456 237.325ZM945.77 241.416L1068.68 265.273L1044.83 388.183L957.433 371.237L930.938 317.383L945.77 241.416Z" fill="#FE7624"/>
<path fill-rule="evenodd" clip-rule="evenodd" d="M960.447 273.374C960.727 271.801 962.185 270.734 963.752 270.921L963.926 270.946L1039.23 284.346C1040.86 284.637 1041.94 286.194 1041.65 287.826C1041.37 289.399 1039.92 290.466 1038.35 290.279L1038.17 290.254L962.875 276.854C961.244 276.563 960.157 275.006 960.447 273.374Z" fill="#003E9B"/>
<path fill-rule="evenodd" clip-rule="evenodd" d="M958.147 286.574C958.427 285.001 959.885 283.934 961.452 284.121L961.626 284.146L1036.93 297.546C1038.56 297.837 1039.64 299.394 1039.35 301.026C1039.07 302.599 1037.62 303.666 1036.05 303.479L1035.88 303.454L960.575 290.054C958.944 289.763 957.857 288.206 958.147 286.574Z" fill="#003E9B"/>
<path fill-rule="evenodd" clip-rule="evenodd" d="M956.047 300.471C956.329 298.899 957.788 297.833 959.355 298.021L959.529 298.047L1004.23 306.047C1005.86 306.339 1006.95 307.898 1006.65 309.528C1006.37 311.101 1004.91 312.167 1003.35 311.979L1003.17 311.953L958.472 303.953C956.841 303.661 955.756 302.102 956.047 300.471Z" fill="#003E9B"/>
<path fill-rule="evenodd" clip-rule="evenodd" d="M928.26 316.304C928.577 314.738 930.061 313.706 931.623 313.93L931.796 313.96L968.796 321.46C970.382 321.781 971.416 323.297 971.163 324.873L971.129 325.049L960.629 372.449C960.271 374.066 958.669 375.087 957.051 374.729C955.492 374.383 954.487 372.882 954.738 371.324L954.771 371.151L964.61 326.733L930.604 319.84C929.038 319.523 928.007 318.039 928.23 316.478L928.26 316.304Z" fill="#FE7624"/>
<path fill-rule="evenodd" clip-rule="evenodd" d="M839.1 70C840.757 70 842.1 71.3431 842.1 73C842.1 74.5977 840.851 75.9037 839.276 75.9949L839.1 76H818.878L818.663 77.7238C818.499 79.004 818.313 80.3858 818.103 81.8643L817.898 83.298C816.748 91.2025 815.219 100.005 813.261 109.483C807.667 136.568 799.758 163.656 789.124 188.966C773.506 226.14 753.339 256.228 727.982 276.667C697.467 301.265 660.604 310.864 617.057 302.85L611.537 301.838C553.112 291.155 509.104 284.254 462.002 279.218L460.53 279.061C394.625 272.079 335.639 270.681 283.825 276.109C222.809 282.5 173.628 298.244 137.985 324.669C97.9497 354.351 75.4733 397.189 72.4962 454.856C69.4422 513.526 78.0925 553.212 96.5155 576.162C111.75 595.14 133.386 602.302 160.061 599.732C178.362 597.968 198.056 591.72 217.961 582.398C226.328 578.48 234.163 574.279 241.238 570.081L242.56 569.291C244.07 568.383 245.467 567.52 246.745 566.712L247.81 566.033C248.361 565.679 248.853 565.358 249.283 565.074L250.105 564.525C251.472 563.589 253.339 563.938 254.276 565.305C255.212 566.672 254.862 568.539 253.495 569.475L252.854 569.906C252.427 570.189 251.939 570.509 251.389 570.864L251.053 571.081C249.096 572.338 246.836 573.736 244.3 575.241C237.065 579.534 229.06 583.825 220.505 587.832C200.032 597.421 179.717 603.866 160.636 605.704C132.095 608.454 108.464 600.632 91.8365 579.918C72.3337 555.622 63.3808 514.549 66.5042 454.545C69.5726 395.11 92.9209 350.61 134.412 319.849C171.038 292.695 221.206 276.636 283.2 270.141C335.487 264.664 394.872 266.072 461.162 273.095L464.117 273.411C512.314 278.611 557.429 285.776 618.143 296.95C659.956 304.644 695.052 295.505 724.217 271.996C748.696 252.264 768.328 222.974 783.593 186.642C794.061 161.726 801.865 135 807.385 108.27C809.226 99.3578 810.682 91.0542 811.796 83.5532L811.96 82.434C812.29 80.1652 812.568 78.1101 812.797 76.2852L813.049 74.202L813.215 72.7023C813.362 71.2273 814.561 70.0904 816.024 70.0051L816.2 70H839.1Z" fill="#003E9B"/>
<path fill-rule="evenodd" clip-rule="evenodd" d="M834.6 82H818C815.5 82 813.5 80 813.5 77.5V68.8C813.5 66.3 815.5 64.3 818 64.3H834.6C837.1 64.3 839.1 66.3 839.1 68.8V77.5C839.1 80 837 82 834.6 82Z" fill="#FE7624"/>
<path fill-rule="evenodd" clip-rule="evenodd" d="M267.7 564C276.2 557 279.1 513.2 243.4 532.5C207.7 551.8 234.1 579.6 251.6 572.4C269 565.2 267.7 564 267.7 564Z" fill="#FE7624"/>
<path fill-rule="evenodd" clip-rule="evenodd" d="M372.235 268.665C372.892 270.122 372.291 271.826 370.894 272.557L368.416 273.709L366.6 274.569C364.734 275.459 362.664 276.462 360.404 277.579L359.025 278.262C349.672 282.912 339.246 288.389 328.015 294.655C295.925 312.561 263.837 333.2 233.901 356.278C173.989 402.465 130.418 452.419 110.114 505.088C85.0862 570.011 96.7855 635.901 152.302 702.275C153.365 703.546 153.196 705.438 151.925 706.501C150.654 707.564 148.762 707.396 147.699 706.125C90.8006 638.098 78.6938 569.913 104.515 502.93C125.284 449.055 169.533 398.323 230.237 351.526C260.428 328.251 292.76 307.457 325.091 289.416L327.593 288.026C337.545 282.517 346.844 277.639 355.302 273.414L356.354 272.889C358.952 271.598 361.322 270.443 363.447 269.426L365.505 268.448L368.266 267.166C369.776 266.484 371.553 267.155 372.235 268.665Z" fill="#003E9B"/>
<path fill-rule="evenodd" clip-rule="evenodd" d="M154 711.7C163.2 717.7 205.8 707.4 176.8 679.1C147.8 650.7 129 684.2 141.1 698.8C153.3 713.3 154 711.7 154 711.7Z" fill="#FE7624"/>
<path fill-rule="evenodd" clip-rule="evenodd" d="M408.3 285.5H368C360.7 285.5 354.7 279.6 354.7 272.2V272.2C354.7 264.9 360.6 258.9 368 258.9H408.3C415.6 258.9 421.6 264.8 421.6 272.2V272.2C421.6 279.6 415.6 285.5 408.3 285.5Z" fill="#FE7624"/>
<path fill-rule="evenodd" clip-rule="evenodd" d="M1278.54 500.501L1238.44 628.604C1231.45 650.869 1243.81 674.462 1266.1 681.462L1306.6 694.163C1328.89 701.162 1352.58 688.769 1359.47 666.486L1399.56 538.396C1406.55 516.131 1394.19 492.538 1371.9 485.538L1331.4 472.838C1309.13 465.846 1285.54 478.207 1278.54 500.501ZM1329.6 478.562L1370.1 491.263C1389.24 497.271 1399.84 517.499 1393.84 536.601L1353.74 664.704C1347.83 683.818 1327.52 694.442 1308.4 688.438L1267.9 675.737C1248.76 669.729 1238.16 649.501 1244.16 630.399L1284.26 502.296C1290.27 483.162 1310.5 472.564 1329.6 478.562Z" fill="#003E9B"/>
<path fill-rule="evenodd" clip-rule="evenodd" d="M1294.8 615.9C1294.8 615.9 1303.8 615.7 1303.8 624C1303.8 624 1296.5 625.4 1294.8 615.9Z" fill="#003E9B"/>
<path fill-rule="evenodd" clip-rule="evenodd" d="M1309.6 640.8C1308.8 640 1307.8 639.3 1306.9 638.7C1308.2 637.6 1309.2 635.8 1309.3 633.8C1309.4 631.6 1308.6 629.6 1307.2 628.4C1308.2 625.9 1309.8 622.4 1311 621.3C1311.6 620.8 1311.6 619.7 1311 619C1310.4 618.3 1309.5 618.1 1308.9 618.7C1307.2 620.3 1305.3 624.8 1304.3 627.2C1304.2 627.2 1304.2 627.2 1304.1 627.2C1301 627.1 1298.3 629.8 1298.1 633.4C1298 634.6 1298.3 635.6 1298.7 636.6C1295.2 636.7 1291.7 637.9 1289 640.2C1283 645.2 1282.6 653.7 1288.1 659.1C1293.6 664.5 1302.9 664.8 1308.9 659.7C1314.7 654.6 1315.1 646.2 1309.6 640.8Z" fill="#003E9B"/>
<path fill-rule="evenodd" clip-rule="evenodd" d="M767.4 704.1L715.8 392.9L631.7 406.8L722.3 637.7L499.9 725.1L503.7 747.9L767.4 704.1Z" fill="#003E9B"/>
<path fill-rule="evenodd" clip-rule="evenodd" d="M615.139 364.826L386.256 454.702C384.714 455.308 383.954 457.049 384.56 458.591L490.628 728.709C491.234 730.252 492.975 731.011 494.517 730.405L723.401 640.529C724.943 639.923 725.702 638.182 725.096 636.64L619.028 366.522C618.423 364.98 616.682 364.22 615.139 364.826ZM614.539 371.507L718.415 636.041L495.116 723.724L391.241 459.191L614.539 371.507Z" fill="#003E9B"/>
<path fill-rule="evenodd" clip-rule="evenodd" d="M416.842 489.674C419.176 488.758 421.811 489.907 422.727 492.241C423.616 494.507 422.559 497.056 420.362 498.041L420.159 498.126L377.859 514.726C375.525 515.642 372.89 514.493 371.974 512.159C371.085 509.893 372.142 507.344 374.339 506.359L374.542 506.274L416.842 489.674Z" fill="#003E9B"/>
<path fill-rule="evenodd" clip-rule="evenodd" d="M434.433 534.477C436.766 533.556 439.403 534.701 440.323 537.033C441.217 539.296 440.165 541.847 437.97 542.837L437.768 542.923L395.468 559.623C393.135 560.544 390.498 559.399 389.578 557.067C388.684 554.804 389.736 552.253 391.931 551.263L392.133 551.177L434.433 534.477Z" fill="#003E9B"/>
<path fill-rule="evenodd" clip-rule="evenodd" d="M452.042 579.374C454.376 578.458 457.011 579.607 457.927 581.941C458.816 584.207 457.759 586.756 455.562 587.741L455.359 587.826L413.059 604.426C410.725 605.342 408.09 604.193 407.174 601.859C406.285 599.593 407.342 597.044 409.539 596.059L409.742 595.974L452.042 579.374Z" fill="#003E9B"/>
<path fill-rule="evenodd" clip-rule="evenodd" d="M469.642 624.174C471.976 623.258 474.61 624.407 475.526 626.741C476.415 629.007 475.359 631.556 473.162 632.541L472.959 632.626L430.659 649.226C428.325 650.142 425.69 648.993 424.774 646.659C423.885 644.393 424.942 641.844 427.139 640.859L427.342 640.774L469.642 624.174Z" fill="#003E9B"/>
<path fill-rule="evenodd" clip-rule="evenodd" d="M487.337 668.976C489.669 668.057 492.306 669.203 493.224 671.536C494.116 673.801 493.063 676.35 490.867 677.339L490.664 677.424L448.264 694.124C445.931 695.043 443.295 693.897 442.376 691.564C441.484 689.299 442.538 686.75 444.734 685.761L444.937 685.676L487.337 668.976Z" fill="#003E9B"/>
<path fill-rule="evenodd" clip-rule="evenodd" d="M545.304 478.807C546.846 478.202 548.587 478.961 549.193 480.504C549.777 481.991 549.091 483.663 547.659 484.323L547.497 484.392L466.497 516.192C464.954 516.798 463.213 516.039 462.608 514.496C462.024 513.009 462.709 511.337 464.142 510.677L464.304 510.607L545.304 478.807Z" fill="#FE7624"/>
<path fill-rule="evenodd" clip-rule="evenodd" d="M583.405 480.307C584.948 479.702 586.688 480.462 587.293 482.005C587.876 483.492 587.19 485.164 585.758 485.824L585.595 485.893L504.495 517.693C502.953 518.298 501.212 517.538 500.607 515.995C500.024 514.508 500.71 512.836 502.143 512.176L502.305 512.107L583.405 480.307Z" fill="#FE7624"/>
<path fill-rule="evenodd" clip-rule="evenodd" d="M486.701 518.209C488.242 517.601 489.984 518.359 490.591 519.9C491.177 521.387 490.494 523.06 489.062 523.722L488.9 523.791L472.4 530.291C470.858 530.898 469.116 530.141 468.509 528.6C467.923 527.113 468.607 525.44 470.038 524.778L470.201 524.709L486.701 518.209Z" fill="#FE7624"/>
<path fill-rule="evenodd" clip-rule="evenodd" d="M518.198 564.41C519.739 563.801 521.482 564.557 522.09 566.098C522.677 567.584 521.995 569.257 520.564 569.921L520.402 569.99L492.302 581.09C490.761 581.699 489.019 580.943 488.41 579.402C487.823 577.916 488.505 576.243 489.936 575.579L490.098 575.51L518.198 564.41Z" fill="#FE7624"/>
<path fill-rule="evenodd" clip-rule="evenodd" d="M533.802 539.608C535.344 539.002 537.086 539.76 537.692 541.302C538.277 542.789 537.592 544.461 536.16 545.123L535.998 545.192L485.898 564.892C484.356 565.498 482.615 564.74 482.008 563.198C481.424 561.711 482.108 560.039 483.54 559.377L483.702 559.308L533.802 539.608Z" fill="#FE7624"/>
<path fill-rule="evenodd" clip-rule="evenodd" d="M504.706 530.106C506.249 529.502 507.99 530.264 508.594 531.806C509.176 533.294 508.489 534.966 507.056 535.625L506.894 535.694L478.794 546.694C477.251 547.298 475.51 546.536 474.906 544.994C474.324 543.506 475.011 541.834 476.444 541.175L476.606 541.106L504.706 530.106Z" fill="#FE7624"/>
<path fill-rule="evenodd" clip-rule="evenodd" d="M563.902 506.808C565.444 506.202 567.186 506.96 567.792 508.502C568.377 509.989 567.692 511.662 566.26 512.323L566.098 512.392L519.298 530.792C517.756 531.398 516.014 530.64 515.408 529.098C514.823 527.611 515.508 525.938 516.94 525.277L517.102 525.208L563.902 506.808Z" fill="#FE7624"/>
<path fill-rule="evenodd" clip-rule="evenodd" d="M625.2 457L620 476.2L620.5 657.3H631L630.5 476.1L625.2 457Z" fill="#FE7624"/>
<path fill-rule="evenodd" clip-rule="evenodd" d="M641.599 607.039L642.499 650.939C642.533 652.559 641.276 653.901 639.679 653.995L639.5 654H620.5V648L636.437 647.999L635.601 607.161L641.599 607.039Z" fill="#003E9B"/>
<path fill-rule="evenodd" clip-rule="evenodd" d="M622.5 538.6H628.3C630.8 538.6 632.8 536.6 632.8 534.2L633.1 490.3C633.1 487.8 631.1 485.8 628.7 485.8H622.9C620.4 485.8 618.4 487.8 618.4 490.2L618.1 534.1C618.1 536.6 620.1 538.6 622.5 538.6Z" fill="#003E9B"/>
<path fill-rule="evenodd" clip-rule="evenodd" d="M623.001 588.823L628.999 588.977L628.399 612.377L622.401 612.223L623.001 588.823Z" fill="#003E9B"/>
<path fill-rule="evenodd" clip-rule="evenodd" d="M573.4 415.4L570.8 435L595.4 614.5L605.8 613.1L581.2 433.6L573.4 415.4Z" fill="#FE7624"/>
<path fill-rule="evenodd" clip-rule="evenodd" d="M527.805 131.726C529.447 131.508 530.956 132.662 531.174 134.305C531.384 135.889 530.318 137.348 528.769 137.646L528.595 137.674L471.395 145.274C463.339 146.342 457.64 153.659 458.539 161.714L458.774 163.605C459.843 171.661 467.159 177.36 475.191 176.465L475.504 176.426L534.804 168.526C536.446 168.307 537.955 169.461 538.174 171.104C538.385 172.688 537.319 174.147 535.77 174.445L535.596 174.474L476.295 182.374C464.969 183.876 454.557 176 452.872 164.719L452.823 164.372L452.626 162.794C451.124 151.469 459 141.056 470.259 139.375L470.605 139.326L527.805 131.726Z" fill="#FE7624"/>
<path fill-rule="evenodd" clip-rule="evenodd" d="M621.7 39.3C568.405 39.3 525.2 82.5045 525.2 135.8C525.2 189.095 568.405 232.3 621.7 232.3C674.996 232.3 718.2 189.095 718.2 135.8C718.2 82.5045 674.996 39.3 621.7 39.3ZM621.7 45.3C671.682 45.3 712.2 85.8182 712.2 135.8C712.2 185.782 671.682 226.3 621.7 226.3C571.718 226.3 531.2 185.782 531.2 135.8C531.2 85.8182 571.718 45.3 621.7 45.3Z" fill="#FE7624"/>
<path fill-rule="evenodd" clip-rule="evenodd" d="M621.7 201.9C658.206 201.9 687.8 172.306 687.8 135.8C687.8 99.294 658.206 69.7 621.7 69.7C585.194 69.7 555.6 99.294 555.6 135.8C555.6 172.306 585.194 201.9 621.7 201.9Z" fill="#003E9B"/>
<path fill-rule="evenodd" clip-rule="evenodd" d="M1117.2 483L860.794 483.5C850.556 483.5 842.3 491.83 842.3 502.1L842.5 603.006C842.5 613.244 850.83 621.5 861.1 621.5L1117.51 621C1127.74 621 1136 612.67 1136 602.4L1135.8 501.494C1135.8 491.256 1127.47 483 1117.2 483ZM860.8 489.5L1117.2 489C1124.17 489 1129.8 494.582 1129.8 501.5L1130 602.406C1130 609.368 1124.42 615 1117.5 615L861.094 615.5C854.132 615.5 848.5 609.918 848.5 603L848.3 502.094C848.3 495.132 853.882 489.5 860.8 489.5Z" fill="#FE7624"/>
<path fill-rule="evenodd" clip-rule="evenodd" d="M1111.3 490.7L866.4 491.2C858.496 491.2 852.1 497.791 852.1 505.9L852.3 597.007C852.3 605.029 858.715 611.6 866.6 611.6L1111.51 611.1C1119.36 611.227 1125.7 604.649 1125.7 596.5V574.3L1125.7 574.124C1125.6 572.549 1124.3 571.3 1122.7 571.3L1118.2 571.299L1118.1 530.5H1122.6C1124.26 530.5 1125.6 529.157 1125.6 527.5V505.3C1125.6 497.271 1119.19 490.7 1111.3 490.7ZM1111.31 496.7L1111.55 496.704C1115.97 496.84 1119.6 500.639 1119.6 505.3V524.5H1117.9C1114.63 524.5 1112.1 527.155 1112.1 530.4L1112.2 571.407L1112.2 571.626C1112.32 574.745 1114.88 577.3 1118 577.3L1119.7 577.299V596.5C1119.7 601.278 1116.16 605.034 1111.79 605.101L866.594 605.6C862.061 605.6 858.3 601.747 858.3 597L858.1 505.893C858.1 501.065 861.851 497.2 866.406 497.2L1111.31 496.7Z" fill="#FE7624"/>
</svg>
