<svg width="108" height="96" viewBox="0 0 108 96" fill="none" xmlns="http://www.w3.org/2000/svg">
<path fill-rule="evenodd" clip-rule="evenodd" d="M53.2038 0.0077109C62.877 -0.165722 72.0838 2.5971 80.5882 7.22075C90.2265 12.4609 100.506 18.102 104.959 28.1458C109.618 38.6553 108.409 50.8905 104.787 61.8027C101.182 72.6595 94.43 82.4404 84.8627 88.6814C75.5919 94.7292 64.1695 96.9058 53.2038 95.4522C43.1046 94.1134 35.0299 87.428 27.0953 81.0237C19.5666 74.9468 12.8542 68.2414 8.67032 59.5068C3.95143 49.6552 -1.76389 38.5876 1.8258 28.2687C5.40334 17.9847 16.9966 13.4296 26.522 8.19011C34.8804 3.59249 43.6712 0.178623 53.2038 0.0077109Z" fill="#FFD622"/>
</svg>
